<?xml version="1.0" encoding="UTF-8"?>
<svg id="Layer_1" data-name="Layer 1" xmlns="http://www.w3.org/2000/svg" xmlns:xlink="http://www.w3.org/1999/xlink" viewBox="0 0 2055 2276.03">
  <defs>
    <style>
      .cls-1, .cls-2 {
        stroke-width: 150px;
      }

      .cls-1, .cls-2, .cls-3 {
        stroke: #fff;
        stroke-miterlimit: 10;
      }

      .cls-1, .cls-3 {
        fill: none;
      }

      .cls-2 {
        fill: #2e3192;
      }

      .cls-4 {
        fill: url(#linear-gradient);
      }

      .cls-3 {
        opacity: .8;
        stroke-width: 30px;
      }
    </style>
    <linearGradient id="linear-gradient" x1="321.68" y1="194.64" x2="1809.16" y2="2177.11" gradientUnits="userSpaceOnUse">
      <stop offset="0" stop-color="#2484c6"/>
      <stop offset="0" stop-color="#2484c6" stop-opacity="1"/>
      <stop offset=".09" stop-color="#2484c6" stop-opacity=".89"/>
      <stop offset=".19" stop-color="#2484c6" stop-opacity=".8"/>
      <stop offset=".32" stop-color="#2484c6" stop-opacity=".74"/>
      <stop offset=".5" stop-color="#2484c6" stop-opacity=".71"/>
      <stop offset="1" stop-color="#2484c6" stop-opacity=".7"/>
    </linearGradient>
  </defs>
  <path class="cls-4" d="M2.79,704.83v861c0,99.7,53.19,191.83,139.53,241.68l747.68,431.67c85.09,49.12,189.91,49.12,275,0l747.68-431.67c86.34-49.85,139.53-141.98,139.53-241.68V704.83c0-99.7-53.19-191.83-139.53-241.68L1182.32,41.48c-95.8-55.31-213.83-55.31-309.63,0L142.32,463.16C55.98,513.01,2.79,605.13,2.79,704.83Z"/>
  <circle class="cls-3" cx="1027.5" cy="1133.33" r="1012.5"/>
  <g>
    <path class="cls-1" d="M1632.37,610.98V1657.7c0,105.83-86.54,189.15-192.18,182.79-94.9-5.71-170.09-84.47-170.09-180.8v-132.86c0-116.18-94.18-210.35-210.35-210.35h-274.67c-.1,0-.18,.08-.18,.18v341.05c0,105.83-86.54,189.15-192.18,182.79-94.9-5.71-170.09-84.47-170.09-180.8V610.98c0-100.02,81.09-181.13,181.13-181.13s181.13,81.11,181.13,181.13v132.88c0,116.18,94.18,210.35,210.35,210.35h274.67c.1,0,.18-.08,.18-.18v-343.06c0-100.02,81.09-181.13,181.13-181.13s181.13,81.11,181.13,181.13Z"/>
    <line class="cls-1" x1="785.08" y1="1316.48" x2="422.63" y2="1000.47"/>
    <line class="cls-2" x1="1632.37" y1="1257.73" x2="1260.66" y2="954.21"/>
  </g>
</svg>