<?xml version="1.0" encoding="UTF-8"?>
<svg id="Layer_1" data-name="Layer 1" xmlns="http://www.w3.org/2000/svg" xmlns:xlink="http://www.w3.org/1999/xlink" viewBox="0 0 2030.87 2280.14">
  <defs>
    <style>
      .cls-1 {
        stroke-width: 30px;
      }

      .cls-1, .cls-2 {
        fill: none;
      }

      .cls-1, .cls-2, .cls-3 {
        stroke: #fff;
        stroke-miterlimit: 10;
      }

      .cls-2 {
        opacity: .8;
        stroke-width: 10px;
      }

      .cls-3 {
        fill: url(#linear-gradient);
        stroke-width: 20px;
      }
    </style>
    <linearGradient id="linear-gradient" x1="319.87" y1="213.04" x2="1785.74" y2="2166.71" gradientUnits="userSpaceOnUse">
      <stop offset="0" stop-color="#2484c6"/>
      <stop offset="0" stop-color="#2484c6" stop-opacity="1"/>
      <stop offset=".09" stop-color="#2484c6" stop-opacity=".89"/>
      <stop offset=".19" stop-color="#2484c6" stop-opacity=".8"/>
      <stop offset=".32" stop-color="#2484c6" stop-opacity=".74"/>
      <stop offset=".5" stop-color="#2484c6" stop-opacity=".71"/>
      <stop offset="1" stop-color="#2484c6" stop-opacity=".7"/>
    </linearGradient>
  </defs>
  <path class="cls-3" d="M10,674.93v930.28c0,71.38,38.08,137.33,99.89,173.02l805.65,465.14c61.82,35.69,137.97,35.69,199.79,0l805.65-465.14c61.82-35.69,99.89-101.64,99.89-173.02V674.93c0-71.38-38.08-137.33-99.89-173.02L1115.33,36.77c-61.82-35.69-137.97-35.69-199.79,0L109.89,501.91c-61.82,35.69-99.89,101.64-99.89,173.02Z"/>
  <circle class="cls-2" cx="1015.44" cy="1140.07" r="997.58"/>
  <g>
    <path class="cls-1" d="M1608.93,625.58V1652.04c0,101.86-84.43,184.82-186.17,180.06-94.24-4.41-169.28-82.2-169.28-177.53v-130.36c0-113.99-92.41-206.4-206.4-206.4h-269.51c-.09,0-.17,.08-.17,.17v334.06c0,101.86-84.43,184.82-186.17,180.06-94.24-4.41-169.28-82.2-169.28-177.53V625.58c0-98.14,79.57-177.73,177.73-177.73s177.73,79.59,177.73,177.73v130.38c0,113.99,92.41,206.4,206.4,206.4h269.51c.09,0,.17-.08,.17-.17v-336.6c0-98.14,79.57-177.73,177.73-177.73s177.73,79.59,177.73,177.73Z"/>
    <line class="cls-1" x1="777.57" y1="1317.81" x2="421.94" y2="1007.74"/>
    <line class="cls-1" x1="1608.93" y1="1260.17" x2="1244.2" y2="962.35"/>
  </g>
</svg>