<svg width="267" height="262" viewBox="0 0 267 262" fill="none" xmlns="http://www.w3.org/2000/svg">
<path opacity="0.4" d="M215.137 261.49L256.888 236.986C259.917 235.203 262.429 232.661 264.176 229.611C265.923 226.561 266.845 223.108 266.85 219.593V86.4486C266.852 82.9322 265.933 79.4767 264.186 76.4255C262.438 73.3743 259.922 70.8337 256.888 69.0564L144.034 2.77629C140.935 0.95838 137.408 0 133.815 0C130.223 0 126.695 0.95838 123.597 2.77629L94.3662 19.8274L215.137 261.49Z" fill="#0290FA"/>
<path opacity="0.4" d="M51.6892 261.49L9.96273 236.986C6.93355 235.203 4.4215 232.661 2.6744 229.611C0.927302 226.561 0.00552487 223.108 2.52397e-06 219.593V86.4486C-0.00175745 82.9322 0.916941 79.4767 2.66475 76.4255C4.41257 73.3743 6.92861 70.8337 9.96273 69.0564L122.817 2.77629C125.915 0.95838 129.443 0 133.035 0C136.628 0 140.155 0.95838 143.254 2.77629L172.484 19.8274L51.6892 261.49Z" fill="#0290FA"/>
<path opacity="0.4" d="M262.611 74.8532C260.963 72.4954 258.828 70.5185 256.351 69.0558L143.521 2.77567C140.418 0.958078 136.887 0 133.29 0C129.694 0 126.163 0.958078 123.06 2.77567L10.2299 69.0558C7.75273 70.5185 5.61801 72.4954 3.96973 74.8532C4.26825 75.2862 4.60231 75.6936 4.96843 76.0711L125.763 196.89C127.763 198.881 130.469 199.998 133.29 199.998C136.111 199.998 138.818 198.881 140.817 196.89L261.612 76.0711C261.985 75.6999 262.32 75.2918 262.611 74.8532Z" fill="#0290FA"/>
</svg>
